HIERARCHY
ROOT Hips
{
     OFFSET 1.88212 96.90440 -13.34250
     CHANNELS 6 Xposition Yposition Zposition Zrotation Xrotation Yrotation
     JOINT Spine
     {
          OFFSET 0.00000 11.89050 0.00000
          CHANNELS 3 Zrotation Xrotation Yrotation
          JOINT Spine1
          {
               OFFSET -0.00000 25.65740 0.12766
               CHANNELS 3 Zrotation Xrotation Yrotation
               JOINT HEad
               {
                    OFFSET 0.00000 8.73416 0.01134
                    CHANNELS 3 Zrotation Xrotation Yrotation
                    End Site
                    {
                         OFFSET -0.29000 12.77420 2.51395
                    }
               }
               JOINT LeftShoulder1
               {
                    OFFSET 8.99000 -0.36225 -0.22000
                    CHANNELS 3 Zrotation Xrotation Yrotation
                    JOINT LeftArm
                    {
                         OFFSET 10.28270 -0.00338 0.32212
                         CHANNELS 3 Zrotation Xrotation Yrotation
                         JOINT LeftForeArm
                         {
                              OFFSET 32.76690 0.09914 -1.42434
                              CHANNELS 3 Zrotation Xrotation Yrotation
                              JOINT LeftHand
                              {
                                   OFFSET 27.56430 0.08536 1.02216
                                   CHANNELS 3 Zrotation Xrotation Yrotation
                                   End Site
                                   {
                                        OFFSET 16.74430 -0.60000 1.50291
                                   }
                              }
                         }
                    }
               }
               JOINT RightShoulder
               {
                    OFFSET -8.99000 -0.36225 -0.22000
                    CHANNELS 3 Zrotation Xrotation Yrotation
                    JOINT RightArm
                    {
                         OFFSET -10.28270 -0.00338 0.32212
                         CHANNELS 3 Zrotation Xrotation Yrotation
                         JOINT RightForeArm
                         {
                              OFFSET -32.89710 0.09914 -1.42434
                              CHANNELS 3 Zrotation Xrotation Yrotation
                              JOINT RightHand
                              {
                                   OFFSET -27.49210 0.08536 1.02216
                                   CHANNELS 3 Zrotation Xrotation Yrotation
                                   End Site
                                   {
                                        OFFSET -16.63120 -0.60000 1.50291
                                   }
                              }
                         }
                    }
               }
          }
     }
     JOINT LeftUpLeg
     {
          OFFSET 8.94580 -8.66707 0.10165
          CHANNELS 3 Zrotation Xrotation Yrotation
          JOINT LeftLeg
          {
               OFFSET 0.00000 -44.42270 1.37270
               CHANNELS 3 Zrotation Xrotation Yrotation
               JOINT LeftFoot
               {
                    OFFSET -0.25355 -42.09240 -1.46059
                    CHANNELS 3 Zrotation Xrotation Yrotation
                    JOINT LeftToes
                    {
                         OFFSET -0.04000 -4.41509 8.49910
                         CHANNELS 3 Zrotation Xrotation Yrotation
                         End Site
                         {
                              OFFSET 0.08000 -0.04745 9.77979
                         }
                    }
               }
          }
     }
     JOINT RightUpLeg
     {
          OFFSET -8.94580 -8.66707 0.10165
          CHANNELS 3 Zrotation Xrotation Yrotation
          JOINT RightLeg
          {
               OFFSET 0.00000 -44.42270 1.37270
               CHANNELS 3 Zrotation Xrotation Yrotation
               JOINT RightFoot
               {
                    OFFSET 0.25355 -42.09240 -1.46059
                    CHANNELS 3 Zrotation Xrotation Yrotation
                    JOINT RightToes
                    {
                         OFFSET 0.04000 -4.41509 8.49910
                         CHANNELS 3 Zrotation Xrotation Yrotation
                         End Site
                         {
                              OFFSET -0.08000 -0.13745 9.77979
                         }
                    }
               }
          }
     }
}
MOTION
Frames: 19
Frame Time: 0.01667
-54.81805 86.73002 70.10851 0.70315 -4.89728 9.97455 17.44539 12.37948 4.46688 0.00238 0.02334 0.00641 -37.61436 24.54376 41.98691 -1.15034 5.24288 1.42695 24.92445 -74.97675 50.42168 -40.75259 46.83603 -107.58649 5.41738 9.87852 -5.53289 18.95469 6.98992 16.34418 40.97789 -19.52923 66.63877 26.48092 18.48192 77.84817 4.55333 12.47560 17.78360 24.74438 -27.35691 31.55833 10.97510 19.75319 -33.05597 3.48423 -0.00354 -0.01677 -19.77908 -0.13375 0.65263 -15.41885 18.42807 12.79424 -1.35006 13.51184 0.52227 10.39143 -0.09907 -0.02971 -11.05710 -45.81770 -13.29526 
-56.69076 86.34547 69.07543 0.60150 -4.13098 10.05859 16.77043 12.70031 5.42880 0.00342 0.02264 0.00736 -37.33175 22.65698 41.56586 -1.00371 4.85198 0.86522 27.15789 -76.21571 53.56043 -42.00371 47.86703 -106.82088 5.08832 9.79499 -5.43707 18.79402 6.26463 16.52496 42.15708 -20.20227 67.70377 27.63230 18.64422 78.06907 4.68198 12.54586 16.50944 24.28765 -28.76201 30.29942 12.21143 18.83734 -31.72238 5.08483 -0.00133 -0.01192 -21.49071 3.71386 -0.30332 -15.88096 19.44328 13.65394 1.56651 10.71892 -2.44009 6.11296 -0.17023 0.03641 -7.52323 -43.69821 -12.14645 
-58.48828 86.09171 68.05723 0.52010 -3.51779 10.20000 16.07829 13.04909 6.23031 0.00106 0.02083 0.00651 -37.00056 21.00069 41.12792 -0.88099 4.43433 0.33583 28.94500 -77.54977 55.99955 -43.25607 48.81860 -105.87641 4.89746 9.50964 -5.08250 18.61987 5.53335 16.60391 43.35345 -20.86694 68.80135 27.84803 17.62964 76.85859 5.88320 12.02172 16.59032 23.77640 -29.97278 27.72967 13.09863 18.60426 -29.16752 6.81021 -0.00152 -0.00766 -26.32893 3.60895 1.61000 -16.19341 19.20747 13.73219 4.54016 9.60067 -3.99846 7.45759 -0.12569 0.00545 -11.02395 -44.72779 -9.55493 
-60.16736 85.99257 67.12860 0.43471 -3.05584 10.35904 15.35890 13.41105 6.92135 -0.00622 0.01951 0.00657 -36.60638 19.61315 40.68572 -0.78330 3.96039 -0.10589 29.70520 -78.93451 57.13602 -44.40160 49.63885 -104.83676 4.66243 9.61171 -4.82030 17.94166 4.59954 16.77128 46.35938 -20.31746 66.92137 25.14017 17.72947 77.81844 8.02701 11.51786 17.64845 23.45543 -30.80931 25.27170 13.31483 20.15565 -25.28457 9.74452 -0.04367 0.02364 -28.76877 3.56327 0.82339 -16.30681 17.89274 13.15736 7.06332 9.90085 -4.19348 3.02945 -0.13594 0.02445 -8.36881 -44.25918 -8.89959 
-61.69661 86.10230 66.32737 0.34392 -2.73045 10.49656 14.62158 13.77993 7.54341 -0.00404 0.02030 0.00762 -36.20393 18.51632 40.25627 -0.70529 3.47076 -0.51877 29.56952 -80.27979 57.16249 -45.33706 50.25623 -103.85887 4.59606 9.79113 -4.44296 17.40896 3.70978 16.96693 48.30061 -20.73794 66.74121 26.01304 19.74221 78.79250 7.20137 11.87256 15.89423 23.42993 -31.43161 23.07732 12.61321 22.58755 -20.16890 13.47526 -0.08253 0.06549 -32.19817 7.49215 14.89670 -16.14302 15.77967 12.02264 8.93697 11.74957 -3.09328 5.99414 -0.15555 0.02446 -12.74634 -43.90313 -8.84211 
-63.03657 86.40448 65.67504 0.26533 -2.52701 10.59464 13.86920 14.12693 8.10718 -0.00136 0.01610 0.00512 -35.83960 17.73989 39.87570 -0.62800 2.99177 -0.85138 28.50940 -81.53918 56.10855 -46.10353 50.69364 -102.96079 4.51535 10.03853 -4.08604 17.22685 3.00173 16.80340 49.35951 -21.24267 67.39362 26.70370 19.51722 77.76493 7.80435 11.92307 15.92108 23.73181 -31.93688 21.23400 10.87734 25.46291 -14.22784 17.80677 -0.11018 0.10722 -33.54447 5.96159 4.01996 -16.20164 14.24243 11.03995 10.40388 12.06223 -1.89549 3.34615 -0.11194 0.03292 -10.41285 -41.80494 -8.83887 
-64.18410 86.81986 65.15764 0.20743 -2.42947 10.65667 13.12567 14.42302 8.60181 0.00282 0.01255 0.00314 -35.54326 17.25078 39.56556 -0.52494 2.51572 -1.12265 26.71413 -82.62615 54.23181 -46.70432 50.96284 -102.22421 4.51244 10.37029 -3.79320 17.16851 2.36454 16.27112 49.83764 -21.75933 68.17057 28.77698 22.59916 77.96916 5.05615 11.96208 14.32410 24.20140 -32.23271 19.68647 9.10081 26.79240 -9.04737 21.40015 -0.06856 0.05948 -36.20939 6.61032 4.39577 -16.36780 13.18276 10.17607 11.70450 13.09057 -0.85006 3.59062 -0.02445 -0.00400 -10.70187 -41.15888 -8.24457 
-65.16978 87.26960 64.75433 0.15861 -2.38487 10.70722 12.41041 14.60804 9.01767 0.00405 0.00997 0.00195 -35.31403 17.02830 39.33113 -0.41600 2.11504 -1.28221 24.52233 -83.62453 51.86735 -47.23286 51.12134 -101.56563 4.47534 10.57211 -3.40236 17.05126 1.86359 15.65740 50.01060 -22.36593 68.85125 30.25588 22.97650 76.99282 4.56981 12.30151 14.12691 24.66398 -32.26056 18.32512 7.38453 27.05362 -4.72875 24.44903 -0.04616 0.02512 -38.67056 7.13427 -0.28865 -16.55751 12.41339 9.37409 12.83890 14.35264 0.05572 2.97364 -0.02092 -0.00725 -9.82236 -40.61820 -6.91747 
-66.03754 87.70377 64.43642 0.11425 -2.37801 10.76802 11.72522 14.68189 9.34780 0.00473 0.01070 0.00280 -35.13950 17.01707 39.15871 -0.36027 1.82058 -1.35886 22.74946 -84.56818 49.76596 -47.69400 51.17995 -100.96235 4.46840 10.92794 -3.06904 16.71974 1.46042 15.13526 49.99573 -23.30384 69.39255 32.07164 26.25963 77.30611 1.52402 11.72966 13.00090 24.99084 -31.96247 17.05162 5.78051 26.54390 -1.26581 27.04759 -0.02767 0.00713 -41.58859 8.29888 -1.64395 -16.79839 11.81265 8.61372 13.59004 15.71879 0.96150 3.63824 -0.02762 0.00116 3.35795 -28.45065 8.97483 
-66.82077 88.09454 64.19012 0.06843 -2.39369 10.84260 11.06163 14.62841 9.60009 0.00389 0.00884 0.00228 -35.00823 17.20716 39.05489 -0.36818 1.56402 -1.34958 21.24490 -85.42024 47.79907 -48.10815 51.19520 -100.39412 4.45899 10.97933 -2.73150 16.50236 1.16789 14.61616 49.63658 -24.20991 69.70872 33.32545 26.65325 76.76924 0.94240 11.72019 12.79453 25.28538 -31.39876 15.89716 3.38266 26.49528 0.04146 30.06542 0.03000 0.01238 -44.28693 8.38742 -2.28040 -17.11454 11.37854 7.87828 14.10700 15.39393 2.07224 15.23252 -0.17556 -0.05604 -14.06845 -33.39460 3.01263 
-67.53329 88.48719 64.00328 0.02871 -2.41980 10.91853 10.40576 14.46260 9.78652 0.00340 0.00734 0.00093 -34.91088 17.53774 39.01332 -0.33410 1.45142 -1.30427 21.50700 -86.29350 47.61122 -48.50624 51.18421 -99.80270 4.48737 11.12508 -2.33377 16.09120 1.02646 13.90522 49.47155 -24.80385 70.00553 34.09594 25.84247 76.13249 1.69416 11.53011 13.32991 25.66487 -30.66341 14.92494 0.58150 26.71217 -0.50267 33.15510 0.08396 -0.00882 -45.93446 7.98648 -0.28841 -17.49786 11.02583 7.15778 14.45507 15.86955 3.14936 10.24772 0.00114 -0.01640 0.83644 -17.49626 20.89499 
-68.15714 88.85049 63.87926 -0.00388 -2.45914 10.99006 9.75332 14.20220 9.90377 0.00271 0.00584 -0.00089 -34.85881 17.96949 39.04708 -0.29935 1.44969 -1.29511 -25.59710 -90.00000 0.00000 -48.83662 51.16496 -99.20486 4.44301 11.10184 -2.06783 15.89395 1.05300 13.11732 49.12625 -25.11982 70.20943 34.48063 24.68048 75.75172 2.71990 11.81929 13.77981 26.03721 -29.77948 14.09504 -1.32514 26.02996 -1.24741 35.19886 0.04831 -0.03264 -48.24033 7.07961 1.55480 -17.92948 10.69157 6.44886 14.77171 16.80218 4.21383 13.93203 -0.02583 0.01488 -6.30433 -24.49441 13.76028 
-68.70772 89.20023 63.81528 -0.02941 -2.50916 11.05127 9.10646 13.87870 9.96273 0.00393 0.00854 0.00044 -34.83880 18.44569 39.13675 -0.25913 1.55089 -1.30045 -25.16768 -90.00000 0.00000 -49.14554 51.16690 -98.56411 4.47892 11.02137 -1.75501 15.63513 1.16124 12.55742 48.75045 -25.64589 70.33267 34.45497 27.48896 77.82083 0.28463 10.31678 12.12425 26.29242 -28.75429 13.34550 -2.60849 24.77419 -2.02923 36.45956 0.02411 -0.02613 -49.02731 7.02119 3.49552 -18.39154 10.31741 5.75154 15.07639 18.02850 5.31197 13.57313 -0.01642 -0.00033 2.18084 -3.94164 21.66000 
-69.21030 89.52829 63.80473 -0.04776 -2.57373 11.10885 8.46944 13.51026 9.95968 0.00480 0.00931 0.00071 -34.83733 18.93227 39.28397 -0.20363 1.71646 -1.28299 -24.76283 -90.00000 0.00000 -49.46556 51.18452 -97.86186 4.44747 10.92125 -1.53803 15.48858 1.36312 12.12828 48.26395 -26.24998 70.41140 34.43172 27.78283 78.75317 -0.09168 9.76927 11.53626 26.34589 -27.59886 12.63916 -3.39894 23.17070 -2.78559 37.08712 0.01214 -0.01686 -49.40338 7.21073 4.88705 -18.84275 9.75812 5.05371 15.19842 21.38259 7.52923 15.14464 -0.04556 0.03868 0.17762 -7.64617 16.12837 
-69.67426 89.82394 63.84673 -0.06146 -2.65746 11.17759 7.85600 13.10727 9.88164 0.00569 0.00861 0.00002 -34.86137 19.40307 39.49034 -0.08174 1.93867 -1.23222 -24.45769 -90.00000 0.00000 -49.75002 51.19744 -97.15701 4.51619 10.71200 -1.41589 15.33403 1.63345 11.60659 47.97665 -26.65388 70.54154 34.43446 26.97946 79.15759 0.66411 9.29867 11.68524 26.16094 -26.34471 11.96795 -3.75266 21.38145 -3.52169 37.16579 0.00624 -0.00903 -49.07467 7.79206 6.45864 -19.24941 9.02054 4.33592 15.32055 23.95835 9.30447 15.51020 -0.03666 0.00571 0.58288 -8.28009 16.54160 
-70.10708 90.07410 63.91867 -0.07416 -2.76275 11.25869 7.27508 12.67330 9.73334 0.00589 0.00739 -0.00038 -34.91592 19.87174 39.75060 0.08180 2.15402 -1.13059 -24.23856 -90.00000 0.00000 -50.02911 51.23643 -96.41931 4.43345 10.43424 -1.26961 15.26294 1.91252 11.10268 47.75093 -27.00955 70.72422 34.60303 25.35352 79.36602 2.07788 9.19673 11.80177 25.75210 -25.04072 11.34683 -3.70722 19.52683 -4.22452 36.74142 0.00335 -0.00339 -49.02584 7.90982 7.30691 -19.61272 8.13722 3.62023 15.44798 26.17366 10.75964 16.08819 -0.02981 0.00608 0.23347 -9.96015 13.13118 
-70.53364 90.29621 63.99236 -0.06709 -2.93158 11.36079 6.73433 12.25991 9.50583 0.00705 0.00658 -0.00070 -34.99017 20.31701 40.05986 0.30799 2.36815 -1.00578 -24.12439 -90.00000 0.00000 -50.28137 51.29343 -95.70744 4.40133 10.27316 -1.21384 15.33206 2.22365 10.65312 47.59889 -27.25994 70.87034 34.77335 23.65824 79.51764 3.67553 9.20409 12.14651 25.14430 -23.70211 10.75599 -3.33839 17.69179 -4.86346 35.86784 0.00246 0.00015 -48.39678 7.91181 8.14067 -19.94056 7.19231 2.93451 15.54047 28.15007 11.71240 15.82075 -0.02442 -0.00641 -0.05320 -11.70466 11.87763 
-70.95183 90.49789 64.05360 -0.04418 -3.16907 11.50543 6.25010 11.86644 9.19859 0.00769 0.00554 -0.00013 -35.08088 20.77198 40.40598 0.52477 2.53668 -0.78574 -24.03710 -90.00000 0.00000 -50.42773 51.34836 -95.10567 4.30439 10.05456 -1.16264 15.72259 2.56463 10.36524 47.31877 -27.42964 70.76439 34.86761 22.19306 79.77264 5.01471 9.20250 12.40164 24.40362 -22.38095 10.18924 -2.74333 15.94653 -5.41542 34.60506 0.00282 0.00194 -47.34224 8.12820 8.56086 -20.21822 6.25477 2.27991 15.58971 29.88948 12.03128 14.73306 -0.02585 -0.01109 -10.74160 -21.81059 -4.28616 
-71.37285 90.67561 64.08868 -0.00599 -3.46268 11.69573 5.82542 11.50109 8.82942 0.00838 0.00628 0.00085 -35.17564 21.20861 40.75920 0.73434 2.76591 -0.50300 -24.01139 -90.00000 0.00000 -50.45974 51.41504 -94.62199 4.26715 9.86295 -1.03727 16.22168 2.99155 10.14954 47.14280 -27.53075 70.55373 34.88288 21.02766 80.16887 6.34005 9.25036 12.57362 23.59975 -21.13047 9.68468 -1.99807 14.34685 -5.90071 32.99935 0.00402 0.00261 -45.96352 8.32941 8.91546 -20.47314 5.44609 1.68037 16.05166 29.71560 10.64574 6.87076 -0.19515 0.07937 10.55442 -3.57811 -8.09440 
